<svg xmlns="http://www.w3.org/2000/svg" width="262.5" viewBox="0 0 262.5 375" height="375" version="1.0"><defs><clipPath id="a"><path d="M 109 97.59375 L 164 97.59375 L 164 184 L 109 184 Z M 109 97.59375"/></clipPath><clipPath id="b"><path d="M 193 168 L 251.503906 168 L 251.503906 258 L 193 258 Z M 193 168"/></clipPath><clipPath id="c"><path d="M 126 210 L 130 210 L 130 278.34375 L 126 278.34375 Z M 126 210"/></clipPath></defs><path fill="#5FAF32" d="M 222.871094 6.308594 C 262.21875 32.402344 252.816406 64.984375 242.867188 100.539062 C 239.007812 113.90625 232.226562 125.046875 232.722656 137.28125 C 233.265625 151.242188 240.640625 165.40625 245.390625 178.527344 C 253.558594 201.207031 261.128906 234.578125 260.4375 258.941406 C 260.089844 270.230469 256.574219 283.699219 253.011719 295.136719 C 247.023438 313.65625 230.691406 334.554688 217.378906 345.597656 C 209.707031 352.03125 203.71875 358.917969 195.453125 362.925781 C 156.503906 381.347656 108.84375 372.832031 62.667969 356.191406 C 54.648438 353.320312 43.613281 346.683594 38.417969 341.335938 L 31.09375 336.433594 C 23.765625 328.710938 18.273438 319.453125 14.957031 309.300781 C 4.21875 276.71875 41.484375 230.46875 51.878906 192.738281 C 55.839844 178.476562 56.035156 163.769531 55.242188 150.300781 C 54.453125 136.882812 47.917969 124.652344 52.621094 109.796875 C 59.351562 88.457031 85.78125 70.878906 98.550781 61.46875 C 112.011719 51.617188 125.078125 42.949219 137.5 34.382812 L 149.378906 19.925781 C 157.046875 14.132812 173.035156 7.347656 182.140625 4.03125 C 190.605469 1.257812 199.609375 0.367188 208.46875 1.503906 C 213.371094 2.394531 218.070312 6.308594 222.871094 6.308594"/><g clip-path="url(#a)"><path fill="#553E27" d="M 109.253906 183.652344 C 109.4375 177.222656 109.558594 170.726562 109.742188 164.296875 C 110.046875 153.148438 110.292969 142 110.597656 130.855469 C 110.71875 126.015625 110.414062 121.054688 111.332031 116.277344 C 113.957031 102.3125 126.976562 97.59375 138.21875 97.65625 C 143.660156 97.65625 149.464844 98.390625 154.109375 101.761719 C 159.609375 105.679688 161.320312 112.785156 161.6875 119.769531 C 161.929688 125.035156 161.992188 130.363281 162.113281 135.632812 C 162.359375 145.003906 162.664062 154.3125 162.910156 163.683594 C 162.910156 163.746094 162.910156 163.867188 162.910156 163.929688 C 162.910156 163.929688 163.273438 176.792969 163.273438 176.792969 C 163.273438 176.792969 109.253906 183.652344 109.253906 183.652344 Z M 109.253906 183.652344"/></g><path fill="#F8AB94" d="M 146.164062 152.964844 C 146.410156 153.457031 146.226562 169.257812 146.226562 169.257812 L 128.136719 169.320312 L 128.074219 147.757812 Z M 146.164062 152.964844"/><path fill="#553E27" d="M 147.019531 163.867188 L 131.863281 152.476562 L 146.957031 153.089844 Z M 147.019531 163.867188"/><path fill="#F8AB94" d="M 151.234375 108.375 C 155.085938 109.417969 157.652344 112.539062 158.9375 116.214844 C 159.667969 118.359375 159.546875 120.441406 159.488281 122.707031 C 159.425781 124.546875 159.363281 126.382812 159.304688 128.21875 C 159.179688 131.835938 159.058594 135.386719 158.875 139 C 158.875 139.675781 158.8125 140.347656 158.8125 141.023438 C 158.753906 142.429688 158.324219 143.902344 157.835938 145.25 C 154.660156 153.824219 144.085938 157.3125 135.835938 154.863281 C 130.089844 153.148438 125.265625 148.496094 123.492188 142.675781 C 123.371094 142.246094 123.1875 141.757812 123.1875 141.265625 C 123.1875 141.144531 123.0625 141.082031 123.003906 141.144531 C 118.234375 144.144531 113.410156 139.917969 112.613281 135.082031 C 112.371094 133.488281 112.429688 132.019531 112.917969 130.792969 C 113.589844 129.015625 114.996094 127.667969 117.320312 126.996094 C 118.847656 126.566406 120.496094 126.503906 121.964844 127.058594 C 122.695312 127.363281 123.492188 127.730469 123.980469 128.34375 C 124.589844 129.140625 125.140625 130.121094 125.265625 130.425781 C 125.265625 130.488281 125.324219 130.488281 125.386719 130.488281 L 125.507812 130.488281 C 125.265625 130.488281 149.953125 119.585938 151.234375 108.375"/><path fill="#553E27" d="M 141.398438 133.609375 C 141.398438 133.828125 141.355469 134.039062 141.273438 134.242188 C 141.1875 134.445312 141.070312 134.625 140.914062 134.78125 C 140.757812 134.933594 140.582031 135.054688 140.378906 135.136719 C 140.175781 135.222656 139.964844 135.265625 139.746094 135.265625 C 139.527344 135.265625 139.316406 135.222656 139.117188 135.136719 C 138.914062 135.054688 138.734375 134.933594 138.582031 134.78125 C 138.425781 134.625 138.308594 134.445312 138.222656 134.242188 C 138.140625 134.039062 138.097656 133.828125 138.097656 133.609375 C 138.097656 133.390625 138.140625 133.179688 138.222656 132.976562 C 138.308594 132.773438 138.425781 132.597656 138.582031 132.441406 C 138.734375 132.285156 138.914062 132.167969 139.117188 132.082031 C 139.316406 132 139.527344 131.957031 139.746094 131.957031 C 139.964844 131.957031 140.175781 132 140.378906 132.082031 C 140.582031 132.167969 140.757812 132.285156 140.914062 132.441406 C 141.070312 132.597656 141.1875 132.773438 141.273438 132.976562 C 141.355469 133.179688 141.398438 133.390625 141.398438 133.609375 Z M 141.398438 133.609375"/><path fill="#553E27" d="M 155.941406 133.609375 C 155.941406 133.828125 155.898438 134.039062 155.816406 134.242188 C 155.734375 134.445312 155.613281 134.625 155.457031 134.78125 C 155.304688 134.933594 155.125 135.054688 154.921875 135.136719 C 154.722656 135.222656 154.511719 135.265625 154.292969 135.265625 C 154.074219 135.265625 153.863281 135.222656 153.660156 135.136719 C 153.457031 135.054688 153.28125 134.933594 153.125 134.78125 C 152.96875 134.625 152.851562 134.445312 152.765625 134.242188 C 152.683594 134.039062 152.640625 133.828125 152.640625 133.609375 C 152.640625 133.390625 152.683594 133.179688 152.765625 132.976562 C 152.851562 132.773438 152.96875 132.597656 153.125 132.441406 C 153.28125 132.285156 153.457031 132.167969 153.660156 132.082031 C 153.863281 132 154.074219 131.957031 154.292969 131.957031 C 154.511719 131.957031 154.722656 132 154.921875 132.082031 C 155.125 132.167969 155.304688 132.285156 155.457031 132.441406 C 155.613281 132.597656 155.734375 132.773438 155.816406 132.976562 C 155.898438 133.179688 155.941406 133.390625 155.941406 133.609375 Z M 155.941406 133.609375"/><path fill="#553E27" d="M 150.015625 139.917969 C 150.257812 139.917969 150.503906 139.859375 150.746094 139.859375 C 150.808594 139.859375 150.992188 139.859375 151.113281 139.859375 C 151.113281 139.796875 151.054688 139.734375 151.054688 139.675781 C 150.992188 139.492188 150.992188 139.367188 150.929688 139.183594 C 150.871094 138.878906 150.746094 138.511719 150.6875 138.203125 C 150.503906 137.53125 150.378906 136.917969 150.199219 136.246094 C 150.074219 135.753906 150.871094 135.507812 150.992188 136 C 151.234375 137.039062 151.480469 138.144531 151.785156 139.183594 C 151.910156 139.613281 152.214844 140.347656 151.601562 140.59375 C 151.359375 140.652344 151.113281 140.652344 150.808594 140.714844 L 150.015625 140.777344 C 149.769531 140.777344 149.585938 140.59375 149.585938 140.347656 C 149.585938 140.042969 149.769531 139.917969 150.015625 139.917969 Z M 150.015625 139.917969"/><path fill="#553E27" d="M 159.304688 128.097656 C 159.304688 128.097656 159.304688 128.160156 159.304688 128.097656 C 159.488281 128.21875 159.609375 128.34375 159.609375 128.527344 C 159.609375 128.710938 159.488281 128.894531 159.363281 128.957031 C 158.875 129.261719 158.019531 129.324219 157.46875 129.382812 C 156.738281 129.445312 156.003906 129.507812 155.269531 129.445312 C 154.230469 129.445312 153.128906 129.324219 152.152344 128.957031 C 152.03125 128.894531 151.847656 128.832031 151.726562 128.710938 C 151.417969 128.402344 151.542969 128.035156 151.910156 127.851562 C 152.886719 127.300781 154.476562 127.300781 155.574219 127.300781 C 156.675781 127.363281 158.203125 127.484375 159.304688 128.097656 Z M 159.304688 128.097656"/><path fill="#553E27" d="M 142.621094 127.914062 C 142.621094 127.914062 142.679688 127.914062 142.621094 127.914062 C 142.804688 128.035156 142.984375 128.160156 142.984375 128.34375 C 142.984375 128.527344 142.863281 128.710938 142.742188 128.832031 C 142.253906 129.199219 141.398438 129.324219 140.785156 129.445312 C 140.054688 129.566406 139.257812 129.628906 138.523438 129.691406 C 137.425781 129.75 136.265625 129.75 135.226562 129.382812 C 135.042969 129.324219 134.917969 129.261719 134.734375 129.140625 C 134.429688 128.832031 134.492188 128.464844 134.859375 128.21875 C 135.835938 127.609375 137.484375 127.425781 138.648438 127.363281 C 139.871094 127.300781 141.457031 127.363281 142.621094 127.914062 Z M 142.621094 127.914062"/><path fill="#553E27" d="M 117.441406 129.199219 C 118.785156 129.933594 119.640625 131.160156 120.3125 132.507812 C 121.046875 134.101562 121.597656 135.753906 122.023438 137.46875 C 122.148438 137.898438 121.78125 138.144531 121.414062 138.144531 C 121.414062 138.144531 121.351562 138.144531 121.351562 138.144531 L 121.230469 138.144531 C 121.109375 138.144531 120.984375 138.082031 120.863281 137.960938 C 120.070312 137.101562 119.273438 136.183594 118.726562 135.140625 C 118.480469 134.652344 118.234375 134.039062 118.234375 133.488281 C 118.296875 132.996094 118.480469 132.507812 118.910156 132.261719 C 118.417969 131.40625 117.808594 130.671875 116.890625 130.179688 C 116.21875 129.875 116.769531 128.894531 117.441406 129.199219 Z M 117.441406 129.199219"/><path fill="#553E27" d="M 128.199219 167.605469 C 128.199219 167.605469 134.675781 179.730469 137.179688 182 L 146.164062 167.480469 C 146.164062 167.480469 151.847656 170.238281 153.679688 170.359375 L 149.648438 216.296875 L 119.945312 216.296875 L 119.335938 170.667969 Z M 128.199219 167.605469"/><path fill="#553E27" d="M 153.621094 170.421875 C 171.160156 173.179688 175.925781 182.121094 175.925781 182.121094 L 194.441406 208.824219 L 194.808594 241.351562 L 165.230469 208.640625 L 119.886719 216.421875 L 105.648438 220.707031 L 99.292969 252.558594 L 78.820312 252.191406 L 80.101562 245.636719 C 80.101562 245.636719 85.664062 213.910156 88.65625 196.148438 C 91.652344 178.382812 101.1875 176.730469 101.1875 176.730469 L 119.214844 170.789062"/><path fill="#F8AB94" d="M 128.074219 167.664062 L 134.796875 182.671875 L 144.332031 170.667969 L 146.285156 167.605469 Z M 128.074219 167.664062"/><path fill="#553E27" d="M 151.785156 143.042969 C 149.160156 144.636719 145.796875 144.757812 143.109375 143.289062 C 142.742188 143.105469 142.4375 143.65625 142.804688 143.839844 C 145.675781 145.433594 149.28125 145.308594 152.09375 143.59375 C 152.457031 143.347656 152.152344 142.796875 151.785156 143.042969 Z M 151.785156 143.042969"/><path fill="#553E27" d="M 139.746094 139.675781 C 135.589844 139.675781 132.230469 136.304688 132.230469 132.140625 C 132.230469 127.976562 135.589844 124.605469 139.746094 124.605469 C 143.902344 124.605469 147.265625 127.976562 147.265625 132.140625 C 147.265625 136.304688 143.902344 139.675781 139.746094 139.675781 Z M 139.746094 125.15625 C 135.898438 125.15625 132.78125 128.28125 132.78125 132.140625 C 132.78125 136 135.898438 139.121094 139.746094 139.121094 C 143.597656 139.121094 146.714844 136 146.714844 132.140625 C 146.714844 128.28125 143.535156 125.15625 139.746094 125.15625 Z M 139.746094 125.15625"/><path fill="#553E27" d="M 157.714844 139.917969 C 153.558594 139.917969 150.199219 136.550781 150.199219 132.386719 C 150.199219 128.21875 153.558594 124.851562 157.714844 124.851562 C 161.871094 124.851562 165.230469 128.21875 165.230469 132.386719 C 165.230469 136.550781 161.871094 139.917969 157.714844 139.917969 Z M 157.714844 125.402344 C 153.863281 125.402344 150.746094 128.527344 150.746094 132.386719 C 150.746094 136.246094 153.863281 139.367188 157.714844 139.367188 C 161.5625 139.367188 164.679688 136.246094 164.679688 132.386719 C 164.679688 128.527344 161.503906 125.402344 157.714844 125.402344 Z M 157.714844 125.402344"/><path fill="#553E27" d="M 150.320312 132.445312 L 147.265625 132.445312 C 146.835938 132.445312 146.835938 133.058594 147.265625 133.058594 L 150.320312 133.058594 C 150.746094 133.058594 150.746094 132.445312 150.320312 132.445312 Z M 150.320312 132.445312"/><path fill="#553E27" d="M 132.476562 130.671875 C 129.910156 130.179688 127.402344 129.566406 124.835938 128.894531 C 124.46875 128.773438 124.285156 129.382812 124.652344 129.507812 C 127.160156 130.179688 129.726562 130.792969 132.292969 131.28125 C 132.660156 131.34375 132.839844 130.730469 132.476562 130.671875 Z M 132.476562 130.671875"/><path fill="#553E27" d="M 164.742188 131.957031 C 163.03125 131.589844 161.378906 131.222656 159.667969 130.914062 C 159.304688 130.855469 159.121094 131.464844 159.488281 131.527344 C 161.199219 131.835938 162.847656 132.203125 164.558594 132.570312 C 164.988281 132.628906 165.109375 132.019531 164.742188 131.957031 Z M 164.742188 131.957031"/><g clip-path="url(#b)"><path fill="#553E27" d="M 248.585938 257.582031 L 196.335938 257.582031 C 194.808594 257.582031 193.585938 256.355469 193.585938 254.824219 L 193.585938 171.339844 C 193.585938 169.808594 194.808594 168.585938 196.335938 168.585938 L 248.585938 168.585938 C 250.113281 168.585938 251.335938 169.808594 251.335938 171.339844 L 251.335938 254.824219 C 251.277344 256.355469 250.054688 257.582031 248.585938 257.582031 Z M 248.585938 257.582031"/></g><path fill="#553E27" d="M 98.984375 255.5 C 98.984375 255.5 98.128906 265.667969 90.917969 265.851562 C 83.648438 266.035156 38.972656 255.070312 38.972656 255.070312 Z M 98.984375 255.5"/><path fill="#F8AB94" d="M 213.386719 166.132812 C 213.324219 166.625 212.898438 173.421875 212.714844 175.933594 C 212.652344 176.792969 213.265625 177.527344 214.121094 177.589844 C 214.546875 177.589844 214.914062 177.464844 215.28125 176.914062 C 215.890625 175.933594 216.382812 173.117188 216.746094 171.035156 C 216.808594 170.851562 217.054688 170.851562 217.054688 171.035156 L 217.054688 177.527344 C 217.054688 177.589844 217.054688 177.648438 217.113281 177.648438 C 217.480469 177.957031 219.253906 179.179688 220.597656 177.773438 C 220.660156 177.710938 220.78125 177.710938 220.84375 177.773438 C 221.210938 178.199219 222.429688 179.242188 224.019531 177.710938 C 224.019531 177.710938 224.082031 177.648438 224.082031 177.648438 C 224.140625 177.160156 224.9375 172.996094 225.242188 170.972656 C 225.304688 170.789062 225.546875 170.789062 225.546875 170.972656 L 226.160156 176.058594 C 226.160156 176.117188 226.160156 176.117188 226.21875 176.117188 C 226.402344 176.363281 227.566406 177.527344 228.542969 176.058594 L 229.398438 168.828125 C 229.398438 168.644531 229.335938 165.398438 226.035156 166.132812 C 225.976562 166.132812 225.976562 166.132812 225.914062 166.132812 C 225.609375 165.890625 223.960938 164.910156 221.699219 166.011719 C 221.636719 166.011719 221.574219 166.074219 221.515625 166.011719 C 221.085938 165.765625 220.230469 164.601562 218.09375 165.460938 C 218.03125 165.460938 217.96875 165.460938 217.910156 165.460938 C 217.175781 165.214844 214.179688 164.417969 213.449219 166.132812 C 213.386719 166.074219 213.386719 166.132812 213.386719 166.132812 Z M 213.386719 166.132812"/><path fill="#553E27" d="M 38.914062 255.070312 L 98.4375 258.316406 L 98.984375 254.765625 Z M 38.914062 255.070312"/><path fill="#553E27" d="M 221.210938 166.808594 C 220.964844 170.359375 220.71875 173.914062 220.476562 177.40625 C 220.476562 177.832031 221.085938 177.832031 221.085938 177.40625 C 221.332031 173.851562 221.574219 170.300781 221.820312 166.808594 C 221.882812 166.441406 221.269531 166.441406 221.210938 166.808594 Z M 221.210938 166.808594"/><path fill="#553E27" d="M 217.359375 165.582031 C 217.113281 167.238281 216.808594 168.953125 216.503906 170.605469 C 216.441406 170.972656 217.054688 171.15625 217.113281 170.789062 C 217.421875 169.136719 217.726562 167.480469 217.96875 165.765625 C 218.03125 165.339844 217.421875 165.15625 217.359375 165.582031 Z M 217.359375 165.582031"/><path fill="#553E27" d="M 225.304688 166.746094 C 225.242188 167.972656 225.179688 169.136719 225.179688 170.359375 C 225.179688 170.789062 225.792969 170.789062 225.792969 170.359375 C 225.792969 169.136719 225.792969 167.972656 225.914062 166.746094 C 225.976562 166.316406 225.363281 166.316406 225.304688 166.746094 Z M 225.304688 166.746094"/><path fill="#553E27" d="M 243.820312 213.417969 L 201.714844 213.417969 C 201.53125 213.417969 201.410156 213.296875 201.410156 213.113281 L 201.410156 181.507812 C 201.410156 181.324219 201.53125 181.203125 201.714844 181.203125 L 243.820312 181.203125 C 244.003906 181.203125 244.125 181.324219 244.125 181.507812 L 244.125 213.050781 C 244.125 213.296875 244.003906 213.417969 243.820312 213.417969 Z M 202.019531 212.808594 L 243.515625 212.808594 L 243.515625 181.875 L 202.019531 181.875 Z M 202.019531 212.808594"/><path fill="#553E27" d="M 203.671875 219.667969 L 241.804688 219.667969 L 241.804688 221.445312 L 203.671875 221.445312 Z M 203.671875 219.667969"/><path fill="#553E27" d="M 241.804688 221.75 L 203.671875 221.75 C 203.488281 221.75 203.363281 221.628906 203.363281 221.445312 L 203.363281 219.667969 C 203.363281 219.484375 203.488281 219.359375 203.671875 219.359375 L 241.804688 219.359375 C 241.988281 219.359375 242.109375 219.484375 242.109375 219.667969 L 242.109375 221.445312 C 242.109375 221.628906 241.988281 221.75 241.804688 221.75 Z M 203.976562 221.136719 L 241.496094 221.136719 L 241.496094 220.035156 L 203.976562 220.035156 Z M 203.976562 221.136719"/><path fill="#553E27" d="M 203.671875 225.058594 L 241.804688 225.058594 L 241.804688 226.832031 L 203.671875 226.832031 Z M 203.671875 225.058594"/><path fill="#553E27" d="M 241.804688 227.140625 L 203.671875 227.140625 C 203.488281 227.140625 203.363281 227.015625 203.363281 226.832031 L 203.363281 225.058594 C 203.363281 224.875 203.488281 224.75 203.671875 224.75 L 241.804688 224.75 C 241.988281 224.75 242.109375 224.875 242.109375 225.058594 L 242.109375 226.832031 C 242.109375 226.957031 241.988281 227.140625 241.804688 227.140625 Z M 203.976562 226.464844 L 241.496094 226.464844 L 241.496094 225.363281 L 203.976562 225.363281 Z M 203.976562 226.464844"/><path fill="#553E27" d="M 217.726562 206.558594 L 217.726562 212.867188 C 217.726562 213.296875 218.335938 213.296875 218.335938 212.867188 L 218.335938 206.558594 C 218.335938 206.191406 217.726562 206.191406 217.726562 206.558594 Z M 217.726562 206.558594"/><path fill="#553E27" d="M 228.664062 206.253906 L 228.664062 212.746094 C 228.664062 213.175781 229.277344 213.175781 229.277344 212.746094 L 229.277344 206.253906 C 229.277344 205.824219 228.664062 205.824219 228.664062 206.253906 Z M 228.664062 206.253906"/><path fill="#553E27" d="M 212.714844 189.65625 L 212.714844 191.492188 L 202.019531 191.492188 C 201.59375 191.492188 201.59375 192.105469 202.019531 192.105469 L 212.714844 192.105469 L 212.714844 193.636719 C 212.714844 194.066406 213.324219 194.066406 213.324219 193.636719 L 213.324219 189.65625 C 213.324219 189.226562 212.714844 189.226562 212.714844 189.65625 Z M 212.714844 189.65625"/><path fill="#553E27" d="M 243.636719 195.78125 L 234.46875 195.78125 L 234.46875 188.0625 L 243.269531 188.0625 C 243.699219 188.0625 243.699219 187.449219 243.269531 187.449219 L 234.105469 187.449219 C 233.796875 187.449219 233.738281 187.816406 233.859375 187.941406 L 233.859375 196.148438 C 233.859375 196.453125 234.226562 196.515625 234.347656 196.390625 L 243.636719 196.390625 C 244.066406 196.390625 244.066406 195.78125 243.636719 195.78125 Z M 243.636719 195.78125"/><path fill="#553E27" d="M 243.820312 244.597656 L 201.714844 244.597656 C 201.53125 244.597656 201.410156 244.472656 201.410156 244.289062 L 201.410156 235.101562 C 201.410156 234.917969 201.53125 234.796875 201.714844 234.796875 L 243.820312 234.796875 C 244.003906 234.796875 244.125 234.917969 244.125 235.101562 L 244.125 244.289062 C 244.125 244.472656 244.003906 244.597656 243.820312 244.597656 Z M 202.019531 243.984375 L 243.515625 243.984375 L 243.515625 235.410156 L 202.019531 235.410156 Z M 202.019531 243.984375"/><path fill="#553E27" d="M 243.757812 239.265625 L 235.875 239.265625 L 235.875 235.53125 C 235.875 235.101562 235.265625 235.101562 235.265625 235.53125 L 235.265625 239.265625 L 227.257812 239.265625 L 227.257812 235.410156 C 227.257812 234.980469 226.648438 234.980469 226.648438 235.410156 L 226.648438 239.265625 L 217.910156 239.265625 L 217.910156 235.410156 C 217.910156 234.980469 217.296875 234.980469 217.296875 235.410156 L 217.296875 239.265625 L 209.292969 239.265625 L 209.292969 235.101562 C 209.292969 234.734375 208.679688 234.734375 208.679688 235.101562 L 208.679688 239.265625 L 202.203125 239.265625 C 201.777344 239.265625 201.777344 239.878906 202.203125 239.878906 L 208.679688 239.878906 L 208.679688 244.167969 C 208.679688 244.535156 209.292969 244.535156 209.292969 244.167969 L 209.292969 239.878906 L 217.296875 239.878906 L 217.296875 244.230469 C 217.296875 244.65625 217.910156 244.65625 217.910156 244.230469 L 217.910156 239.878906 L 226.648438 239.878906 L 226.648438 244.167969 C 226.648438 244.597656 227.257812 244.597656 227.257812 244.167969 L 227.257812 239.878906 L 235.265625 239.878906 L 235.265625 243.859375 C 235.265625 244.289062 235.875 244.289062 235.875 243.859375 L 235.875 239.878906 L 243.757812 239.878906 C 244.1875 239.878906 244.1875 239.265625 243.757812 239.265625 Z M 243.757812 239.265625"/><path fill="#553E27" d="M 140.296875 189.898438 C 138.585938 187.511719 136.875 185.183594 135.226562 182.792969 C 135.101562 182.609375 134.859375 182.609375 134.734375 182.734375 C 134.675781 182.734375 134.613281 182.734375 134.613281 182.792969 C 132.292969 184.570312 129.96875 186.285156 127.648438 187.941406 C 126.121094 181.816406 124.714844 175.628906 123.308594 169.503906 C 123.246094 169.136719 122.636719 169.257812 122.695312 169.6875 C 124.042969 175.933594 125.507812 182.121094 127.035156 188.308594 C 127.097656 188.492188 127.21875 188.550781 127.339844 188.550781 C 127.402344 188.675781 127.585938 188.796875 127.769531 188.675781 C 130.152344 186.960938 132.535156 185.183594 134.859375 183.40625 C 136.507812 185.734375 138.097656 188 139.746094 190.265625 C 139.992188 190.511719 140.542969 190.207031 140.296875 189.898438 Z M 140.296875 189.898438"/><path fill="#553E27" d="M 152.582031 167.789062 C 150.503906 172.382812 148.304688 176.851562 145.980469 181.324219 C 145.796875 181.691406 146.347656 182 146.53125 181.628906 C 148.851562 177.222656 151.054688 172.6875 153.128906 168.09375 C 153.253906 167.726562 152.703125 167.421875 152.582031 167.789062 Z M 152.582031 167.789062"/><path fill="#5FAF32" d="M 100.941406 255.5 L 66.535156 255.253906 C 65.984375 255.253906 65.558594 254.824219 65.558594 254.273438 L 65.558594 253.109375 C 65.558594 252.558594 65.984375 252.128906 66.535156 252.128906 L 100.941406 252.128906 C 101.492188 252.128906 101.917969 252.558594 101.917969 253.109375 L 101.917969 254.519531 C 101.917969 255.007812 101.492188 255.5 100.941406 255.5 Z M 100.941406 255.5"/><path fill="#5FAF32" d="M 84.992188 252.191406 L 69.652344 216.726562 C 68.980469 215.136719 67.269531 214.15625 65.4375 214.15625 L 13.917969 214.523438 C 12.148438 214.523438 10.925781 216.175781 11.535156 217.644531 L 27.300781 253.539062 C 27.667969 254.394531 28.585938 255.007812 29.6875 255.007812 L 82.609375 255.316406 C 84.378906 255.316406 85.664062 253.722656 84.992188 252.191406 Z M 84.992188 252.191406"/><path fill="#553E27" d="M 51.109375 232.308594 C 51.300781 232.683594 51.457031 233.074219 51.582031 233.476562 C 51.703125 233.878906 51.789062 234.285156 51.839844 234.699219 C 51.886719 235.113281 51.898438 235.523438 51.871094 235.933594 C 51.84375 236.339844 51.78125 236.738281 51.679688 237.125 C 51.578125 237.511719 51.441406 237.882812 51.269531 238.234375 C 51.09375 238.585938 50.890625 238.914062 50.652344 239.21875 C 50.417969 239.519531 50.152344 239.792969 49.863281 240.035156 C 49.570312 240.277344 49.253906 240.484375 48.921875 240.65625 C 48.585938 240.832031 48.234375 240.964844 47.867188 241.058594 C 47.5 241.15625 47.125 241.210938 46.742188 241.226562 C 46.355469 241.242188 45.972656 241.214844 45.585938 241.152344 C 45.199219 241.085938 44.820312 240.980469 44.449219 240.835938 C 44.074219 240.691406 43.714844 240.511719 43.367188 240.296875 C 43.023438 240.078125 42.695312 239.828125 42.390625 239.546875 C 42.085938 239.265625 41.804688 238.957031 41.550781 238.625 C 41.296875 238.289062 41.074219 237.933594 40.882812 237.558594 C 40.691406 237.179688 40.53125 236.792969 40.410156 236.390625 C 40.289062 235.988281 40.203125 235.582031 40.152344 235.167969 C 40.101562 234.753906 40.09375 234.34375 40.121094 233.933594 C 40.144531 233.527344 40.210938 233.128906 40.3125 232.742188 C 40.414062 232.351562 40.550781 231.984375 40.722656 231.632812 C 40.894531 231.28125 41.101562 230.953125 41.335938 230.648438 C 41.574219 230.34375 41.835938 230.074219 42.128906 229.832031 C 42.421875 229.589844 42.734375 229.382812 43.070312 229.207031 C 43.40625 229.035156 43.757812 228.902344 44.125 228.808594 C 44.492188 228.710938 44.867188 228.65625 45.25 228.640625 C 45.632812 228.625 46.019531 228.648438 46.40625 228.714844 C 46.789062 228.78125 47.171875 228.886719 47.542969 229.03125 C 47.917969 229.175781 48.277344 229.355469 48.621094 229.570312 C 48.96875 229.789062 49.292969 230.035156 49.601562 230.316406 C 49.90625 230.601562 50.1875 230.90625 50.441406 231.242188 C 50.695312 231.578125 50.917969 231.933594 51.109375 232.308594 Z M 51.109375 232.308594"/><path fill="#5FAF32" d="M 110.414062 172.871094 C 110.167969 172.933594 109.984375 173.179688 109.925781 173.421875 C 109.253906 176.179688 104.914062 191.554688 103.082031 196.636719 C 101.246094 201.722656 99.71875 213.359375 105.28125 224.75 C 105.28125 224.8125 105.339844 224.8125 105.339844 224.875 C 105.648438 226.039062 109.804688 243.617188 106.929688 261.074219 L 104.976562 277.121094 C 104.914062 277.550781 105.28125 277.976562 105.707031 277.976562 L 164.988281 277.976562 C 165.476562 277.976562 165.84375 277.488281 165.71875 276.996094 C 164.4375 273.015625 160.585938 257.703125 161.929688 245.148438 C 162.664062 238.59375 165.351562 208.152344 165.351562 208.152344 C 165.351562 208.152344 150.929688 206.007812 167.003906 174.894531 C 167.1875 174.527344 167.0625 174.035156 166.699219 173.851562 C 165.046875 172.996094 160.464844 170.910156 154.167969 169.992188 C 153.925781 169.933594 153.621094 170.054688 153.4375 170.300781 C 151.054688 173.421875 133.390625 197.066406 130.398438 209.988281 C 130.214844 210.726562 129.234375 210.785156 128.929688 210.050781 C 126.425781 203.3125 120.253906 185.121094 122.574219 169.320312 C 122.574219 169.257812 122.636719 169.320312 122.574219 169.320312 Z M 110.414062 172.871094"/><path fill="#553E27" d="M 133.453125 254.824219 C 127.523438 254.824219 121.660156 254.519531 115.730469 253.90625 C 113.101562 253.660156 110.535156 253.476562 107.785156 252.804688 L 107.910156 247.597656 C 110.351562 248.210938 113.835938 248.699219 116.28125 248.945312 C 131.128906 250.476562 147.019531 249.742188 161.746094 247.351562 L 161.6875 252.558594 C 152.335938 254.089844 142.925781 254.824219 133.453125 254.824219 Z M 133.453125 254.824219"/><path fill="#553E27" d="M 132.902344 266.339844 C 126.976562 266.339844 121.109375 266.035156 115.179688 265.421875 C 112.554688 265.175781 109.253906 264.992188 106.503906 264.320312 L 107.234375 258.867188 C 109.679688 259.480469 113.285156 260.152344 115.730469 260.398438 C 130.582031 261.929688 147.265625 260.890625 161.992188 258.5 L 162.664062 263.828125 C 153.3125 265.421875 142.375 266.339844 132.902344 266.339844 Z M 132.902344 266.339844"/><g clip-path="url(#c)"><path fill="#553E27" d="M 128.5625 225.914062 C 128.929688 221.015625 129.359375 216.113281 129.847656 211.214844 C 129.910156 210.785156 129.234375 210.847656 129.234375 211.214844 C 128.320312 219.851562 127.648438 228.488281 127.28125 237.183594 C 126.914062 245.882812 126.792969 254.519531 126.914062 263.214844 C 126.976562 268.117188 127.160156 273.015625 127.402344 277.917969 C 127.402344 278.34375 128.074219 278.34375 128.015625 277.917969 C 127.585938 269.21875 127.402344 260.582031 127.523438 251.886719 C 127.585938 243.25 127.953125 234.550781 128.5625 225.914062 Z M 128.5625 225.914062"/></g></svg>